<?xml version="1.0" encoding="UTF-8" standalone="no"?>
<!DOCTYPE svg PUBLIC "-//W3C//DTD SVG 1.1//EN" "http://www.w3.org/Graphics/SVG/1.1/DTD/svg11.dtd">
<svg width="100%" height="100%" viewBox="0 0 264 216" version="1.1" xmlns="http://www.w3.org/2000/svg" xmlns:xlink="http://www.w3.org/1999/xlink" xml:space="preserve" xmlns:serif="http://www.serif.com/" style="fill-rule:evenodd;clip-rule:evenodd;stroke-linejoin:round;stroke-miterlimit:2;">
    <path d="M19,99L19,83L67,83L67,67L83,67L83,51L99,51L99,19L115,19L115,3L133,3L133,19L149,19L149,67L229,67L229,83L245,83L245,115L261,115L261,133L245,133L245,165L229,165L229,181L213,181L213,197L197,197L197,213L67,213L67,197L19,197L19,181L3,181L3,99L19,99ZM21,179L35,179L35,101L21,101L21,179ZM53,179L69,179L69,195L195,195L195,181L163,181L163,163L227,163L227,149L163,149L163,131L243,131L243,117L163,117L163,99L227,99L227,85L133,85L133,115L149,115L149,165L131,165L131,117L117,117L117,133L101,133L101,149L67,149L67,131L99,131L99,115L115,115L115,83L131,83L131,21L117,21L117,53L101,53L101,69L85,69L85,85L69,85L69,101L53,101L53,179Z"/>
</svg>
