<?xml version="1.0" encoding="UTF-8" standalone="no"?>
<!DOCTYPE svg PUBLIC "-//W3C//DTD SVG 1.1//EN" "http://www.w3.org/Graphics/SVG/1.1/DTD/svg11.dtd">
<svg width="100%" height="100%" viewBox="0 0 264 216" version="1.1" xmlns="http://www.w3.org/2000/svg" xmlns:xlink="http://www.w3.org/1999/xlink" xml:space="preserve" xmlns:serif="http://www.serif.com/" style="fill-rule:evenodd;clip-rule:evenodd;stroke-linejoin:round;stroke-miterlimit:2;">
    <path d="M19,99L19,83L67,83L67,67L181,67L181,83L197,83L197,149L181,149L181,181L165,181L165,197L149,197L149,213L67,213L67,197L19,197L19,181L3,181L3,99L19,99ZM69,101L53,101L53,179L69,179L69,195L99,195L99,179L115,179L115,165L99,165L99,149L67,149L67,131L99,131L99,115L115,115L115,99L133,99L133,115L149,115L149,131L163,131L163,85L69,85L69,101ZM147,181L117,181L117,195L147,195L147,181ZM179,133L165,133L165,147L179,147L179,133ZM115,133L101,133L101,147L115,147L115,133ZM131,117L117,117L117,131L131,131L131,117ZM163,149L117,149L117,163L163,163L163,149ZM35,101L21,101L21,179L35,179L35,101Z"/>
</svg>
